<?xml version="1.0" encoding="UTF-8" standalone="no"?>
<svg
   xmlns:dc="http://purl.org/dc/elements/1.1/"
   xmlns:cc="http://creativecommons.org/ns#"
   xmlns:rdf="http://www.w3.org/1999/02/22-rdf-syntax-ns#"
   xmlns:svg="http://www.w3.org/2000/svg"
   xmlns="http://www.w3.org/2000/svg"
   width="391.47556"
   height="100.00001"
   id="svg2"
   version="1.1">
  <defs
     id="defs4" />
  <metadata
     id="metadata7">
    <rdf:RDF>
      <cc:Work
         rdf:about="">
        <dc:format>image/svg+xml</dc:format>
        <dc:type
           rdf:resource="http://purl.org/dc/dcmitype/StillImage" />
        <dc:title></dc:title>
      </cc:Work>
    </rdf:RDF>
  </metadata>
  <g
     id="layer1"
     transform="translate(-37.184271,-555.51684)">
    <g
       aria-label="FISH"
       id="text2985"
       style="font-style:normal;font-variant:normal;font-weight:normal;font-stretch:normal;line-height:0%;font-family:'Conventional Wisdom';-inkscape-font-specification:'Conventional Wisdom';letter-spacing:0px;word-spacing:0px;fill:#ff8e26;fill-opacity:1;stroke:none">
      <path
         d="m 199.5943,589.8764 q 0,0.57699 -0.32055,6.92383 -0.32054,2.43616 -0.76931,6.85971 0.0641,-0.76931 0.0641,3.84657 0,3.65424 -2.05151,3.65424 -7.88546,0 -11.4756,0.12822 -3.33369,0 -6.66738,0.0641 -3.59013,0.0641 -6.0263,0.6411 0.12822,2.11561 0.44877,4.35944 0.12822,0.19233 3.59013,0.19233 3.52602,0 3.52602,4.80821 0,2.05151 -2.82081,2.05151 -0.44877,0 -4.23123,-0.38466 -0.25644,0.19233 -0.0641,2.62849 0.25644,3.07726 0.19233,4.29534 0,0.25643 -0.57699,0.96164 -0.51287,0.64109 -0.89753,0.76931 -0.83342,0.25644 -4.16712,0.25644 -3.33369,0 -3.91068,-0.57698 -0.57698,-0.57699 -0.57698,-3.84657 v -20.83559 q 0,-0.25644 -0.38466,-6.47506 -0.32055,-6.28273 -0.32055,-6.53917 0,-2.88493 0.32055,-4.67999 0.0641,-0.70521 0.12822,-1.47452 0.19233,-1.02575 0.70521,-1.08986 1.79506,-0.12822 4.93643,-0.76932 3.14136,-0.7052 4.93643,-0.89753 1.02575,-0.0641 5.3852,-0.0641 0.25643,0 3.26958,-0.19233 3.07726,-0.19233 3.26958,-0.19233 0.25644,0 5.83397,-0.44876 5.64163,-0.44877 5.83396,-0.44877 0.25644,0 0.6411,-0.0641 0.44876,-0.12822 0.57698,-0.12822 0.6411,0 1.08986,1.08986 0.51288,1.08987 0.51288,5.57753 z"
         style="font-size:64.1095px;line-height:1.25;fill:#ff8e26;fill-opacity:1"
         id="path838" />
      <path
         d="m 220.55801,630.13716 q 0,1.28219 -0.25644,1.73096 -4.93643,0.38466 -8.01369,0.38466 h -6.85972 q -1.15397,0 -4.103,-0.70521 0,0.25644 0.12822,-8.33423 0.25643,-2.17972 0.7052,-7.11615 0.12822,-2.05151 0.12822,-4.16712 0,-1.66685 -0.19233,-6.15451 -0.19233,-3.84657 -0.12822,-6.7315 0.25644,-4.87232 0.51288,-10.19341 v -4.87232 q 0.57698,-0.57699 1.08986,-0.70521 5.00054,-0.89753 6.60328,-0.89753 0.19233,0 1.60273,0.19233 1.41041,0.12822 1.60274,0.12822 0.19233,0 0.44877,-0.12822 0.25644,-0.19233 0.51287,-0.19233 0.38466,0 0.89754,0.44877 0.51287,0.44876 0.51287,0.64109 0.25644,1.08986 0.83343,7.4367 1.02575,8.783 2.11561,17.63011 1.85918,16.92491 1.85918,21.6049 z"
         style="font-size:64.1095px;line-height:1.25;fill:#ff8e26;fill-opacity:1"
         id="path840" />
      <path
         d="m 262.74203,621.73882 q 0,6.53917 -1.15397,8.0778 -1.47452,1.85917 -7.82136,1.85917 -0.19232,0 -7.30848,-0.25644 -7.11615,-0.32054 -7.37259,-0.32054 -0.25644,0 -7.18026,0.57698 -6.85972,0.51288 -7.05205,0.51288 -2.30794,0 -2.43616,-0.76932 -0.57699,-3.65424 -0.57699,-7.62903 0,-2.37205 3.91068,-2.37205 h 6.53917 q 2.94904,0 9.10355,-1.02575 v -2.11561 q -0.89753,-0.6411 -3.07725,-0.96164 -0.83343,-0.12822 -2.50028,-0.12822 -1.28219,0 -4.29533,0.12822 -2.94904,0.0641 -4.16712,0.0641 -3.07725,0 -3.26958,-0.38465 -0.19233,-0.38466 -0.25644,-2.88493 0,-2.50027 -0.32055,-3.65424 -0.19233,-0.83342 -0.19233,-4.87232 0,-2.82082 0.83343,-8.52657 0.25643,-2.7567 0.51287,-5.57752 0.32055,-2.88493 1.41041,-4.87232 1.28219,-2.37205 5.06465,-3.52603 2.75671,-0.89753 5.64164,-0.89753 0.12822,0 3.3978,0.57699 3.59013,0.64109 5.51342,0.83342 3.26958,0.32055 9.80875,0.96164 2.30794,0.19233 3.20548,0.44877 2.0515,0.64109 2.30794,2.17972 0.32054,1.9874 0.44876,5.76986 0.12822,5.70574 0.19233,5.96218 0.0641,1.41041 0.44877,4.23123 0.44877,2.75671 0.44877,2.88492 0,3.20548 -0.76932,3.20548 -15.19395,-0.76932 -16.2197,-0.76932 -1.41041,0 -1.66685,0.51288 0,0 0,1.3463 0,1.21808 0.19233,1.53863 0.38466,0.7052 1.66685,0.89753 1.28219,0.12822 10.19341,0.51288 6.15451,0.25644 6.53917,1.08986 0.25643,0.38466 0.25643,7.37259 z"
         style="font-size:64.1095px;line-height:1.25;fill:#ff8e26;fill-opacity:1"
         id="path842" />
      <path
         d="m 302.36165,594.04352 q 0,5.89807 -0.19232,11.28327 -0.44877,2.17972 -1.3463,9.03944 0,5.96218 -0.89754,16.8608 -0.12821,0.76931 -0.57698,0.83342 -3.78246,0.38466 -5.89808,0.38466 -1.85917,0 -1.98739,-0.96165 -0.32055,-2.94903 -0.57699,-10.38573 0.19233,-1.79507 0.12822,-5.32109 -0.0641,-0.32055 -0.51287,-0.70521 -0.44877,-0.38465 -0.89753,-0.38465 -3.39781,-0.0641 -3.84657,-0.12822 -0.44877,-0.0641 -0.25644,-0.0641 -0.44877,0 -1.02575,0.38465 -0.0641,-0.57698 -0.0641,6.60328 v 8.97533 q 0,0.25644 -0.6411,0.76932 -0.64109,0.44876 -0.96164,0.44876 -0.19233,0 -2.82082,-0.19233 -2.56438,-0.19232 -2.75671,-0.19232 -0.25644,0 -4.87232,0.19232 -4.55177,0.19233 -4.7441,0.19233 -2.94904,0 -2.94904,-2.56438 0,-0.38465 0.0641,-1.28219 0.0641,-0.96164 0.0641,-1.47452 0,0.32055 0.38466,-13.65532 0.38465,-14.03998 0.38465,-17.05312 0,-3.97479 0,-3.97479 0,-0.32055 -0.0641,-3.52603 -0.0641,-2.17972 0.6411,-3.33369 0.76931,-1.21808 4.10301,-1.3463 5.06465,-0.19233 11.79614,-0.19233 2.88493,0 2.56438,3.46192 -0.32054,4.03889 -0.38465,7.24437 -0.0641,2.24383 0.0641,3.91068 0.12822,1.85917 0.12822,1.47452 0,3.84657 0.0641,4.35944 0,0.25644 0.83342,1.08986 h 3.65424 q 0.25644,0 0.96164,0.19233 0.70521,0.19233 0.96164,0.19233 0.57699,0 0.76932,-1.02575 0.19233,-1.02575 0.0641,-2.62849 -0.12822,-1.66685 0.0641,-2.82082 0.25644,-1.21808 0.25644,-4.42355 0.0641,-2.24384 0.57698,-2.6926 0.12822,-0.12822 3.07726,0.12822 3.26958,0.25643 3.20547,0.25643 0.19233,0 0.76932,-0.19232 0.64109,-0.25644 0.89753,-0.25644 0.76931,0 1.3463,1.08986 0.44876,0.83342 0.44876,1.41041 z"
         style="font-size:64.1095px;line-height:1.25;fill:#ff8e26;fill-opacity:1"
         id="path844" />
    </g>
    <g
       aria-label="crude"
       id="text2989"
       style="font-style:normal;font-variant:normal;font-weight:normal;font-stretch:normal;line-height:0%;font-family:Remnant;-inkscape-font-specification:Remnant;letter-spacing:0px;word-spacing:0px;fill:#a4cbd0;fill-opacity:1;stroke:none">
      <path
         d="m 53.418406,629.21024 q 0.137772,0.4822 0.06889,0.82663 -0.06889,0.30998 -0.309987,0.51664 -0.206658,0.20666 -0.585531,0.37888 -0.34443,0.13777 -0.757746,0.30998 -0.172215,0.0689 -0.309987,0.20666 -0.137772,0.10333 -0.309987,0.13777 -0.275545,0.0689 -0.619975,0.0344 -0.309987,-0.0344 -0.585531,0.0344 -0.275544,0.0689 -0.447759,0.17221 -0.172215,0.0689 -0.309987,0.0689 -0.275544,0 -0.585531,-0.13777 -0.275544,-0.13777 -0.585531,-0.20666 -0.34443,-0.0689 -0.68886,-0.0689 -0.309987,-0.0344 -0.585531,-0.10333 -0.378873,-0.13777 -0.861075,-0.37887 -0.447759,-0.27554 -0.861075,-0.44776 -0.998847,-0.4822 -1.791036,-1.23995 -0.757746,-0.75774 -1.549935,-1.17106 -0.482202,-0.79219 -1.171062,-1.65326 -0.68886,-0.89552 -1.067733,-1.9977 -0.172215,-0.58553 -0.309987,-1.27439 -0.137772,-0.68886 -0.34443,-1.37772 -0.309987,-0.99884 -0.619974,-2.06658 -0.309987,-1.10217 -0.482202,-2.34212 -0.06889,-0.58553 -0.06889,-1.13662 0,-0.55109 -0.103329,-1.06773 -0.06889,-0.34443 -0.172215,-0.75775 -0.103329,-0.41331 -0.172215,-0.86107 -0.06889,-0.44776 -0.03444,-0.89552 0.03444,-0.44776 0.241101,-0.86108 -0.103329,-0.7233 -0.103329,-1.54993 0.03444,-0.86108 0.137772,-1.68771 0.137772,-0.86107 0.34443,-1.65326 0.206658,-0.79219 0.447759,-1.44661 0.103329,-0.27554 0.206658,-0.51664 0.103329,-0.27555 0.172215,-0.55109 0.06889,-0.27555 0.172215,-0.4822 0.137772,-0.20666 0.241101,-0.44776 0.172215,-0.48221 0.241101,-0.86108 0.103329,-0.37887 0.34443,-0.82663 0.137772,-0.27554 0.34443,-0.55109 0.241101,-0.27554 0.447759,-0.58553 0.275544,-0.37887 0.482202,-0.61997 0.241101,-0.2411 0.482202,-0.41332 0.241101,-0.17221 0.516645,-0.34443 0.309987,-0.20666 0.723303,-0.4822 0.68886,-0.4822 1.274391,-0.75775 0.619974,-0.27554 1.584378,-0.55109 0.378873,-0.0689 1.067733,-0.0344 0.723303,0 1.239948,0 1.067733,-0.0344 2.101023,0.30999 1.067733,0.30999 1.82548,0.7233 0.275544,0.17222 0.413316,0.27555 0.172215,0.0689 0.275544,0.20665 0.137772,0.10333 0.206658,0.27555 0.103329,0.13777 0.275544,0.37887 0.172215,0.27554 0.447759,0.51665 0.275544,0.20665 0.447759,0.4822 0.103329,0.17221 0.275544,0.51664 0.172215,0.30999 0.309987,0.51665 0.241101,0.4822 0.447759,0.99884 0.241101,0.48221 0.241101,0.99885 0,0.61998 -0.309987,1.23995 -0.275544,0.61997 -0.861075,0.65442 -0.516645,0.0344 -0.654417,-0.20666 -0.103329,-0.2411 -0.34443,-0.51665 -0.206658,-0.2411 -0.482202,-0.37887 -0.275544,-0.13777 -0.34443,-0.41332 -0.826632,-0.34443 -1.515493,-0.82663 -0.654417,-0.4822 -1.549935,-0.75774 -0.551088,0.30998 -1.136619,0.10333 -0.551088,-0.24111 -0.895518,-0.51665 -0.723303,0.0689 -1.343277,-0.0344 -0.585531,-0.13777 -1.136619,0.0344 -0.206658,0.0689 -0.585531,0.37887 -0.378873,0.30999 -0.585531,0.55109 -0.172215,0.17222 -0.413316,0.55109 -0.241101,0.37887 -0.482202,0.79219 -0.241101,0.41331 -0.447759,0.82663 -0.206658,0.41332 -0.309987,0.68886 -0.172215,0.51665 -0.206658,0.99885 0,0.4822 -0.413316,0.7233 -0.03444,0.96441 -0.172215,1.82548 -0.103329,0.82663 -0.241101,1.65326 -0.137772,0.79219 -0.275544,1.54994 -0.137772,0.75775 -0.206658,1.54993 -0.03444,0.17222 -0.03444,0.37888 0.03444,0.20666 0.03444,0.37887 0.03444,0.68886 0.137772,1.41216 0.103329,0.68886 0.275544,1.17107 0.137772,0.34443 0.34443,0.68886 0.241101,0.34443 0.309987,0.7233 0.03444,0.17221 -0.03444,0.34443 -0.03444,0.13777 -0.03444,0.30999 0.06889,0.75774 0.378873,1.51549 0.309987,0.75774 0.551088,1.54993 0.309987,0.92996 0.619974,1.68771 0.34443,0.75775 0.861075,1.34328 0.172215,0.2411 0.516645,0.51664 0.378873,0.2411 0.654417,0.37887 0.309987,0.17222 0.757746,0.30999 0.447759,0.10333 0.895518,0.20666 0.172215,0.0689 0.516645,0.13777 0.378873,0.0344 0.585531,0 0.413316,-0.0689 0.895518,-0.30999 0.482202,-0.27554 1.102176,-0.30998 0.309987,0 0.585531,0.10333 0.309987,0.10333 0.654417,0.0344 0.241101,-0.0344 0.551089,-0.17222 0.309987,-0.13777 0.68886,-0.2411 0.34443,-0.10333 0.68886,-0.13777 0.378873,-0.0689 0.585531,-0.17221 0.206658,-0.0689 0.34443,-0.2411 0.172215,-0.20666 0.413316,-0.20666 0.275544,-0.0344 0.619974,0.20666 0.378873,0.20665 0.447759,0.4822 0.03444,0.13777 -0.03444,0.27554 -0.03444,0.10333 -0.06889,0.27555 -0.06889,0.30998 -0.137772,0.75774 -0.03444,0.41332 -0.206658,0.79219 -0.137772,0.37887 -0.413316,0.65442 -0.275544,0.27554 -0.792189,0.20666 z"
         style="font-size:34.443px;line-height:1.25;fill:#a4cbd0;fill-opacity:1"
         id="path847" />
      <path
         d="m 74.600793,615.98412 q 0.206658,0.41332 0.482202,0.75775 0.275544,0.34443 0.516645,0.7233 0.241101,0.37888 0.447759,0.75775 0.206658,0.34443 0.482202,0.7233 0.551088,0.65442 1.171062,1.23995 0.619974,0.58553 1.102176,1.27439 0.413316,0.61997 0.68886,1.27439 0.309987,0.65442 0.929961,1.13662 0.275544,0.86108 0.654417,1.54994 0.413316,0.68886 0.551088,1.65326 -0.378873,0.27554 -0.757746,0.41332 -0.34443,0.13777 -0.723303,0.34443 -0.551088,0.30998 -0.998847,0.79218 -0.447759,0.44776 -0.895518,0.92997 -0.447759,0.4822 -0.895518,0.89551 -0.447759,0.41332 -0.998847,0.65442 -0.241101,0.0689 -0.516645,0.10333 -0.241101,0 -0.447759,0.10333 -0.275544,0.10333 -0.447759,0.30999 -0.137772,0.17221 -0.482202,0.27554 -0.482202,-0.75775 -0.585531,-1.58438 -0.103329,-0.82663 -0.34443,-1.68771 -0.241101,-0.89551 -0.68886,-1.65326 -0.413316,-0.79219 -0.964404,-1.48105 -0.551088,-0.68886 -1.136619,-1.34328 -0.585531,-0.65441 -1.136619,-1.27439 -0.585531,-0.65441 -1.102176,-1.34327 -0.516645,-0.72331 -1.03329,-1.41217 -0.482202,-0.7233 -1.03329,-1.34327 -0.516645,-0.65442 -1.136619,-1.23995 0,0.41331 0.06889,0.82663 0.06889,0.37887 0,0.82663 -0.03444,0.37888 -0.206658,0.65442 -0.172215,0.2411 -0.241101,0.55109 -0.172215,0.58553 -0.137772,1.23995 0.06889,0.65441 0,1.30883 -0.06889,0.75775 -0.275544,1.48105 -0.206658,0.7233 -0.447759,1.48105 -0.206658,0.7233 -0.378873,1.48105 -0.172215,0.7233 -0.103329,1.51549 -0.516645,0.13777 -1.136619,0.20666 -0.585531,0.0344 -1.205505,0.0344 -0.619974,-0.0344 -1.205505,-0.10333 -0.585531,-0.10333 -1.067733,-0.20666 0.06889,-1.51549 0.34443,-2.72099 0.309987,-1.23995 0.723303,-2.44546 0.34443,-0.9644 0.757746,-1.89436 0.413316,-0.92996 0.792189,-1.82548 0.03444,-0.75775 0.275544,-1.34328 0.241101,-0.58553 0.309987,-1.27439 0.103329,-0.61997 0.06889,-1.30883 0,-0.68886 0,-1.34328 0.03444,-0.68886 0.137772,-1.27439 0.103329,-0.61998 0.482202,-1.13662 0.137772,-0.92996 0.172215,-1.92881 0.06889,-1.03329 0.137772,-1.99769 0.103329,-0.99885 0.275544,-1.89437 0.172215,-0.89552 0.551088,-1.61882 -0.137772,-0.30999 -0.172215,-0.7233 0,-0.44776 0.03444,-0.89552 0.06889,-0.4822 0.137772,-0.92996 0.103329,-0.44776 0.172215,-0.79219 -0.413316,-0.27554 -0.654417,-0.68886 -0.206658,-0.44776 -0.137772,-1.10218 0.413316,-0.0689 0.723303,-0.10333 0.309987,-0.0344 0.68886,-0.10332 0.447759,-0.13778 0.861075,-0.37888 0.413316,-0.27554 0.792189,-0.34443 0.241101,-0.0689 0.447759,0.0344 0.206658,0.0689 0.447759,0 0.275544,-0.0344 0.447759,-0.20666 0.206658,-0.17222 0.482202,-0.2411 0.275544,-0.0689 0.585531,-0.0344 0.34443,0.0344 0.68886,-0.0344 0.413316,-0.0689 0.792189,-0.20666 0.378873,-0.17221 0.792189,-0.30998 0.413316,-0.17222 0.861075,-0.24111 0.482202,-0.10332 1.067733,-0.0344 0.516645,0.0689 1.03329,0.34443 0.551088,0.2411 1.171062,0.37887 0.482202,0.0689 0.998847,0.0689 0.551088,0 1.03329,0.20666 0.241101,0.10333 0.516645,0.34443 0.275544,0.2411 0.516645,0.55109 0.275544,0.30998 0.482202,0.61997 0.206658,0.30999 0.34443,0.55109 0.137772,0.27554 0.172215,0.58553 0.06889,0.30999 0.241101,0.68886 0.103329,0.27554 0.275544,0.55109 0.172215,0.2411 0.241101,0.51664 0.206658,0.58553 0.309987,1.30884 0.103329,0.68886 0.137772,1.4466 0.03444,0.72331 -0.06889,1.44661 -0.103329,0.7233 -0.309987,1.27439 -0.103329,0.27554 -0.34443,0.55109 -0.206658,0.27554 -0.378873,0.58553 -0.378873,0.68886 -0.68886,1.37772 -0.275544,0.68886 -0.585531,1.10218 -0.206658,0.27554 -0.516645,0.44775 -0.275544,0.13778 -0.551088,0.41332 -0.413316,0.37887 -0.723303,0.89552 -0.309987,0.4822 -0.68886,0.9644 -0.275544,0.34443 -0.619974,0.58553 -0.309987,0.2411 -0.447759,0.68886 z m -3.340971,-9.40294 q -0.482202,-0.20665 -0.654417,-0.7233 -0.137772,-0.55109 -0.241101,-1.13662 -0.06889,-0.61997 -0.206658,-1.17106 -0.137772,-0.58553 -0.551088,-0.86108 -0.103329,-0.17221 -0.241101,0 -0.103329,0.13778 -0.172215,0 -0.172215,-0.37887 -0.68886,-0.4822 -0.516645,-0.10333 -0.998847,0 0.241101,1.17106 0.137772,2.16991 -0.103329,0.99885 -0.275544,2.20435 -0.06889,0.48221 -0.241101,0.92996 -0.137772,0.41332 -0.206658,0.86108 -0.06889,0.4822 -0.06889,0.9644 0,0.48221 -0.03444,0.96441 -0.03444,0.44776 -0.137772,0.89552 -0.103329,0.44776 -0.378873,0.86107 0.482202,0.17222 0.964404,0.20666 0.482202,0 0.964404,-0.0344 0.516645,-0.0689 0.998847,-0.13778 0.516645,-0.10332 1.03329,-0.10332 0.309987,-1.30884 0.619974,-2.58323 0.309987,-1.27439 0.378873,-2.82433 z m 2.927655,0.58553 q 0.137772,0.68886 0.06889,1.34328 -0.06889,0.65442 0,1.51549 0.206658,-0.0689 0.482202,-0.34443 0.275544,-0.27554 0.482202,-0.51664 -0.06889,-0.86108 0.172215,-1.72215 0.241101,-0.86108 0.34443,-1.75659 -0.34443,-0.13778 -0.619974,-0.37888 -0.241101,-0.27554 -0.516645,-0.51664 -0.241101,-0.2411 -0.551088,-0.41332 -0.275544,-0.20666 -0.723303,-0.27554 -0.06889,0.4822 0.03444,0.89552 0.103329,0.37887 0.241101,0.75774 0.172215,0.34443 0.34443,0.68886 0.172215,0.34443 0.241101,0.7233 z"
         style="font-size:34.443px;line-height:1.25;fill:#a4cbd0;fill-opacity:1"
         id="path849" />
      <path
         d="m 105.35834,598.38375 q -0.10333,0.37887 -0.0689,0.68886 0.0344,0.30999 0.13777,0.61997 0.10333,0.30999 0.17222,0.65442 0.10333,0.30999 0.0689,0.68886 -0.0689,0.34443 -0.20666,0.68886 -0.10333,0.30999 -0.10333,0.68886 0,0.79219 0.27554,1.44661 0.30999,0.65441 0.55109,1.23994 0.27554,0.89552 0.30999,1.79104 0.0344,0.89552 -0.0345,1.79104 -0.0689,0.79219 0.0345,1.61882 0.10333,0.82663 -0.0345,1.61882 -0.17221,1.03329 -0.17221,2.20435 0,1.13662 0.0344,2.34213 0.0689,1.2055 0.0689,2.41101 0.0344,1.17106 -0.10333,2.30768 -0.0689,0.34443 -0.20666,0.65441 -0.10333,0.30999 -0.13777,0.61998 -0.0689,0.58553 0,1.10217 0.10333,0.48221 -0.10333,0.96441 -0.20666,0.4822 -0.55109,1.06773 -0.34443,0.58553 -0.61997,0.99885 -0.13777,0.20666 -0.34443,0.37887 -0.17222,0.13777 -0.27555,0.34443 -0.2411,0.37887 -0.34443,0.79219 -0.10332,0.37887 -0.30998,0.75775 -0.13777,0.2411 -0.34443,0.41331 -0.17222,0.17222 -0.34443,0.37887 -0.37888,0.51665 -0.65442,1.10218 -0.2411,0.58553 -0.79219,0.9644 -0.37887,-0.17221 -0.55109,-0.0344 -0.13777,0.10333 -0.4822,0.17222 -0.413315,0.0689 -0.92996,0.0344 -0.516645,-0.0344 -1.03329,-0.13777 -0.516645,-0.10333 -0.998847,-0.2411 -0.447759,-0.13778 -0.723303,-0.30999 -0.34443,-0.17222 -0.826632,-0.61997 -0.447759,-0.44776 -0.792189,-0.75775 l -1.481049,-1.48105 q -0.103329,-0.0689 -0.275544,-0.0689 -0.172215,-0.0344 -0.241101,-0.10332 -0.516645,-0.37888 -0.895518,-0.89552 -0.34443,-0.55109 -0.792189,-1.03329 -0.206658,-0.20666 -0.482202,-0.37888 -0.241101,-0.17221 -0.413316,-0.41331 -0.172215,-0.2411 -0.275544,-0.51665 -0.103329,-0.30998 -0.275544,-0.58553 -0.241101,-0.37887 -0.619974,-0.75774 -0.378873,-0.37888 -0.275544,-0.96441 -0.06889,-0.0689 -0.137772,-0.0344 -0.06889,0.0344 -0.103329,-0.13777 -0.275544,-0.61998 -0.34443,-1.44661 -0.03444,-0.82663 -0.103329,-1.65326 0.03444,-0.2411 -0.137772,-0.27555 -0.137772,-0.0344 -0.172215,-0.20665 0.309987,-1.2744 0.03444,-2.44546 -0.241101,-1.17106 -0.413316,-2.51434 -0.06889,-0.34443 -0.03444,-0.68886 0.03444,-0.37887 -0.03444,-0.7233 -0.03444,-0.20666 -0.172215,-0.41332 -0.103329,-0.2411 -0.103329,-0.4822 -0.03444,-0.17221 0.03444,-0.37887 0.06889,-0.20666 0.06889,-0.41332 0,-0.27554 -0.06889,-0.58553 -0.06889,-0.34443 -0.103329,-0.68886 -0.06889,-0.86107 -0.06889,-1.79103 0.03444,-0.92997 -0.03444,-1.7566 -0.03444,-0.2411 -0.103329,-0.44776 -0.06889,-0.20665 -0.06889,-0.44776 -0.06889,-0.34443 0.03444,-0.65441 0.103329,-0.34443 0.06889,-0.65442 -0.06889,-0.4822 -0.309987,-1.06773 -0.241101,-0.58553 -0.172215,-1.17106 0.06889,-0.48221 0.34443,-0.82664 0.275544,-0.34443 0.551088,-0.7233 0.378873,0.0689 0.68886,-0.2411 0.309987,-0.30999 0.723303,-0.41332 0.275544,-0.0689 0.551088,-0.0689 0.309987,0 0.551088,-0.0344 0.275544,-0.0344 0.482202,-0.10332 0.206658,-0.10333 0.34443,-0.37888 0.103329,0.13777 -0.06889,0.27555 -0.172215,0.10333 -0.241101,0.20665 0.206658,0.41332 0.241101,0.89552 0.03444,0.4822 0.103329,0.99885 0.06889,0.37887 0.206658,0.68886 0.137772,0.30999 0.137772,0.68886 0,0.17221 -0.06889,0.34443 -0.06889,0.17221 -0.103329,0.34443 -0.103329,1.2055 0.172215,2.20435 0.275544,0.99885 0.482202,1.9977 0.172215,0.79219 0.172215,1.54993 0.03444,0.75775 0.34443,1.34328 0.03444,0.17221 0.172215,0.20666 0.137772,0 0.206658,0.0689 -0.172215,0.58553 -0.137772,1.13662 0.03444,0.51665 0.172215,1.03329 0.137772,0.51665 0.275544,0.99885 0.172215,0.4822 0.275544,0.99885 0.137772,0.75774 0.137772,1.4466 0,0.68886 0.275544,1.37772 0.06889,0.17222 0.206658,0.37887 0.137772,0.17222 0.206658,0.37888 0.06889,0.20666 0.03444,0.4822 -0.03444,0.2411 0,0.4822 0.06889,0.37887 0.241101,0.79219 0.172215,0.37887 0.241101,0.75775 0.06889,0.4822 -0.06889,0.92996 -0.103329,0.44776 -0.06889,0.92996 0.03444,0.51664 0.241101,0.89552 0.241101,0.37887 0.551088,0.7233 0.34443,0.34443 0.68886,0.61997 0.378873,0.27555 0.723303,0.58553 0.206658,0.17222 0.482202,0.44776 0.275544,0.27555 0.447759,0.34443 0.206658,0.0689 0.447759,0 0.241101,-0.0689 0.447759,-0.0689 0.241101,-0.0344 0.413316,0.0344 0.206658,0.0344 0.275544,0.27554 0.137772,-0.34443 0.413316,-0.34443 0.275544,-0.0344 0.516645,-0.13777 0.241099,-0.0689 0.516649,-0.27554 0.27554,-0.20666 0.41331,-0.41332 0.30999,-0.44776 0.41332,-0.99884 0.13777,-0.55109 0.17221,-1.13662 0.0344,-0.61998 0.0344,-1.23995 0,-0.61998 0.0689,-1.23995 0.0689,-0.41332 0.20666,-0.79219 0.13777,-0.37887 0.2411,-0.79219 0.10333,-0.41331 0.17222,-0.89552 0.0689,-0.4822 -0.0344,-1.06773 -0.0689,-0.55109 -0.2411,-1.13662 -0.17221,-0.58553 -0.10333,-1.06773 0.0344,-0.17222 0.13778,-0.34443 0.13777,-0.17222 0.20665,-0.34443 0.13778,-0.65442 0.10333,-1.27439 -0.0344,-0.65442 -0.13777,-1.27439 -0.10333,-0.61998 -0.20666,-1.20551 -0.0689,-0.61997 0,-1.23995 0.0344,-0.20665 0.10333,-0.34443 0.10333,-0.13777 0.13777,-0.30998 0.10333,-0.79219 -0.13777,-1.44661 -0.10333,-0.34443 -0.37887,-0.58553 -0.2411,-0.27554 -0.34443,-0.65442 -0.0689,-0.2411 -0.0344,-0.51664 0.0344,-0.30999 -0.0345,-0.58553 -0.0689,-0.27555 -0.17221,-0.51665 -0.0689,-0.27554 -0.10333,-0.51664 -0.0689,-0.27555 0,-0.48221 0.0689,-0.2411 0,-0.51664 -0.10333,-0.41332 -0.44776,-0.7233 -0.30999,-0.30999 -0.482203,-0.72331 -0.275544,-0.7233 -0.137772,-1.17106 0.172215,-0.44776 0.757745,-0.82663 0.27555,-0.17222 0.4822,-0.37887 0.2411,-0.2411 0.44776,-0.37888 0.30999,-0.20665 0.61998,-0.34443 0.34443,-0.13777 0.41331,-0.58553 0.27555,0 0.37888,-0.10333 0.13777,-0.10333 0.30998,-0.17221 0.58553,0.17221 1.17106,0.37887 0.58554,0.17222 0.96441,0.55109 z"
         style="font-size:34.443px;line-height:1.25;fill:#a4cbd0;fill-opacity:1"
         id="path851" />
      <path
         d="m 113.5213,631.72457 q -0.20666,-0.17221 -0.27554,-0.51664 -0.0689,-0.34443 -0.13777,-0.68886 -0.0345,-0.34443 -0.17222,-0.58553 -0.13777,-0.27555 -0.51664,-0.27555 0.0689,-0.79218 0.0689,-1.48104 0,-0.72331 0.13777,-1.48105 0.0689,-0.48221 0,-0.96441 -0.0344,-0.4822 0.0344,-0.99884 0.0689,-0.51665 0.20666,-0.99885 0.17221,-0.51665 0.27554,-1.10218 0.0689,-0.34443 0,-0.65441 -0.0689,-0.30999 -0.0344,-0.65442 0,-0.17222 0.0689,-0.30999 0.10333,-0.13777 0.13777,-0.30999 0,-0.17221 -0.0689,-0.37887 -0.0689,-0.20666 -0.0344,-0.37887 0,-0.27555 0.0689,-0.55109 0.0689,-0.30999 0.10333,-0.58553 0.0689,-1.23995 -0.0344,-2.51434 -0.0689,-1.27439 0.10333,-2.54878 0.0344,-0.27555 0.0689,-0.51665 0.0689,-0.2411 0.10333,-0.51664 0.0344,-0.79219 -0.0344,-1.54994 -0.0689,-0.79219 0,-1.54993 0,-0.34443 0.0689,-0.7233 0.10333,-0.41332 0.13778,-0.79219 0.0344,-0.37888 -0.0345,-0.72331 -0.0344,-0.37887 -0.2411,-0.68886 0.27555,-0.37887 0.13777,-0.82663 -0.10332,-0.4822 -0.13777,-0.86107 0,-0.44776 0.0689,-0.86108 0.10333,-0.41332 0.13777,-0.82663 0,-1.44661 -0.0344,-2.89321 0,-1.44661 0.41331,-2.89322 1.06774,-0.27554 2.03214,-0.13777 0.9644,0.13777 2.16991,0.41332 0.37887,0.10333 0.75775,0.13777 0.37887,0 0.65441,0.13777 0.2411,0.10333 0.44776,0.27555 0.20666,0.13777 0.44776,0.27554 1.54994,0.82663 2.92766,1.82548 1.37772,0.99885 2.47989,2.06658 0.2411,0.58553 0.55109,1.17106 0.30999,0.55109 0.61997,1.17106 0.34443,0.58553 0.58553,1.23995 0.27555,0.61998 0.41332,1.34328 0.0689,0.27554 0,0.58553 -0.0344,0.30999 0.0344,0.61997 0.0689,0.30999 0.17222,0.61998 0.13777,0.27554 0.20666,0.61997 0.17221,0.65442 0.2411,1.34328 0.10333,0.65442 0.20666,1.34328 0.0689,0.34443 0.13777,0.7233 0.10333,0.37887 0.10333,0.65442 -0.0344,0.58553 -0.2411,1.2055 -0.17222,0.61998 -0.24111,1.27439 -0.0344,0.4822 -0.0689,0.96441 0,0.4822 -0.0689,0.89551 -0.0689,0.34443 -0.20666,0.68886 -0.13777,0.30999 -0.20665,0.65442 -0.0689,0.4822 -0.13778,0.92996 -0.0344,0.44776 -0.17221,0.89552 -0.17222,0.4822 -0.41332,0.89552 -0.20665,0.41331 -0.34443,0.89552 -0.0689,0.2411 -0.10333,0.4822 0,0.2411 -0.0689,0.44776 -0.0689,0.20666 -0.30999,0.51664 -0.20666,0.27555 -0.37887,0.55109 -0.82663,1.27439 -1.89437,2.2388 -1.06773,0.9644 -2.27323,1.79103 -0.51665,0.37887 -1.06774,0.58553 -0.51664,0.17222 -1.10217,0.44776 -0.37888,0.17222 -0.65442,0.37887 -0.27554,0.17222 -0.61997,0.27555 -0.58554,0.2411 -1.23995,0.34443 -0.61998,0.10333 -1.30884,0.17221 -0.65441,0.0344 -1.34327,0.10333 -0.65442,0.0344 -1.30884,0.13777 z m 10.19513,-9.85069 q 0.17222,-0.27555 0.41332,-0.48221 0.2411,-0.2411 0.34443,-0.44775 0.13777,-0.30999 0.2411,-0.79219 0.10333,-0.48221 0.20666,-0.86108 0.17221,-0.89552 0.30998,-1.99769 0.13777,-1.10218 0.17222,-1.96325 0,-0.27555 -0.0689,-0.61998 -0.0689,-0.34443 -0.10333,-0.7233 -0.0344,-0.65442 -0.20666,-1.34328 -0.17221,-0.68886 -0.2411,-1.37772 -0.0689,-0.68886 -0.2411,-1.27439 -0.0689,-0.2411 -0.20666,-0.44776 -0.13777,-0.20666 -0.20665,-0.4822 -0.17222,-0.68886 -0.27555,-1.41216 -0.0689,-0.72331 -0.41331,-1.30884 -0.27555,-0.4822 -0.65442,-0.86107 -0.37887,-0.41332 -0.82663,-0.75775 -0.41332,-0.34443 -0.89552,-0.68886 -0.44776,-0.34443 -0.89552,-0.7233 -0.75774,-0.61998 -1.65326,-1.13662 -0.89552,-0.55109 -1.51549,-0.4822 -0.27555,1.17106 -0.17222,2.51434 0.10333,1.34327 0.20666,2.37656 0.0344,0.34443 0,0.68886 -0.0344,0.30999 -0.0344,0.68886 0,1.61883 0.0689,3.13432 0.10333,1.51549 -0.0689,3.13431 -0.13778,0.99885 -0.0689,2.06658 0.10333,1.03329 0.0344,2.10102 -0.0689,0.89552 -0.30998,1.7566 -0.24111,0.86107 -0.34443,1.75659 -0.0689,0.51664 0,1.10218 0.10332,0.55108 0.0344,1.13661 -0.0344,0.27555 -0.13777,0.55109 -0.10333,0.27555 -0.20666,0.55109 -0.0689,0.2411 -0.0689,0.51665 0,0.2411 0.17222,0.44775 0.27554,0.13778 0.44776,0 0.20665,-0.17221 0.44776,-0.2411 0.27554,-0.0344 0.4822,0.0344 0.2411,0.0344 0.4822,-0.0344 0.55109,-0.13777 1.03329,-0.44776 0.4822,-0.30998 0.9644,-0.61997 0.51665,-0.30999 1.06774,-0.51664 0.55108,-0.20666 1.23994,-0.17222 0.58554,-0.34443 0.82664,-0.99885 0.27554,-0.68886 0.61997,-1.34327 z"
         style="font-size:34.443px;line-height:1.25;fill:#a4cbd0;fill-opacity:1"
         id="path853" />
      <path
         d="m 149.7209,597.45379 q 0.44776,0.34443 0.75774,1.13662 0.34443,0.75774 0.0689,1.65326 -0.10333,0.30999 -0.7233,0.68886 -0.58554,0.37887 -1.06774,0.58553 -0.61997,0.27555 -1.4466,0.37888 -0.79219,0.10332 -1.68771,0.13777 -0.86108,0 -1.79104,-0.0344 -0.92996,-0.0344 -1.75659,0 -0.7233,0.0344 -1.34328,0.27555 -0.58553,0.2411 -0.9644,0.51664 -0.0689,1.17107 -0.2411,2.44546 -0.13777,1.23994 -0.2411,2.51434 -0.10333,1.23994 -0.10333,2.51434 0,1.27439 0.2411,2.47989 0.75775,0.27555 1.72215,0.34443 0.9644,0.0689 1.92881,0.13777 0.99884,0.0344 1.89436,0.17222 0.89552,0.13777 1.54994,0.51664 0.0344,1.06774 -0.27555,1.7566 -0.30998,0.68886 -0.89551,1.2055 -0.20666,0.20666 -0.37888,0.30999 -0.13777,0.10333 -0.34443,0.17221 -0.17221,0.0689 -0.41331,0.13778 -0.20666,0.0344 -0.58553,0.0689 -0.92997,0.13777 -2.2388,0.13777 -1.30883,-0.0344 -2.54878,0 0.0344,1.9977 -0.0689,3.82318 -0.10333,1.82548 -0.20666,3.6854 1.34328,0.17221 2.65212,0.44776 1.34327,0.2411 2.85876,0.13777 0.61998,0.51664 1.20551,1.10217 0.61997,0.55109 1.41216,0.92997 0.61998,-0.27555 1.44661,-0.30999 0.86107,-0.0689 1.54993,-0.34443 0.51665,0.4822 0.51665,0.9644 0.0344,0.44776 -0.20666,0.86108 -0.2411,0.41331 -0.65442,0.82663 -0.37887,0.37887 -0.68886,0.68886 -0.37887,0.37887 -0.75774,0.75775 -0.37888,0.34443 -0.72331,0.61997 -1.61882,0 -3.20319,-0.10333 -0.86108,-0.0689 -1.68771,0 -0.82663,0.0344 -1.58438,-0.0689 -0.27554,-0.0344 -0.51664,-0.17221 -0.24111,-0.13777 -0.51665,-0.20666 -0.7233,-0.17221 -1.44661,-0.10333 -0.68886,0.0689 -1.27439,-0.13777 -0.27554,-0.10333 -0.4822,-0.27554 -0.17221,-0.17222 -0.37887,-0.30999 -0.20666,-0.13777 -0.44776,-0.20666 -0.20666,-0.10333 -0.55109,-0.0344 0.0344,-1.13662 -0.10333,-2.44545 -0.10333,-1.30884 -0.0689,-2.51434 0.0344,-0.99885 0.41331,-1.96325 0.37888,-0.99885 0.55109,-2.10103 0.17222,-1.10217 0.17222,-2.34212 0.0344,-1.27439 0.0344,-2.4799 0.0344,-1.2055 0,-2.41101 0,-1.23995 0,-2.51434 0,-1.2055 0.10333,-2.41101 0.13777,-1.2055 0.13777,-2.37656 0,-0.72331 -0.0344,-1.58438 -0.0344,-0.89552 -0.0344,-1.82548 0,-0.92996 0.0689,-1.79104 0.0689,-0.86107 0.2411,-1.54993 0.55109,-0.27555 1.13662,-0.37888 0.61997,-0.13777 1.23995,-0.30998 0.17221,-0.0689 0.34443,-0.17222 0.17221,-0.10333 0.34443,-0.17221 0.30998,-0.0689 0.65441,-0.0344 0.34443,0 0.68886,-0.0689 0.17222,-0.0344 0.34443,-0.13777 0.20666,-0.13778 0.37888,-0.20666 0.27554,-0.0689 0.58553,-0.0689 0.34443,-0.0344 0.65442,-0.10333 0.65441,-0.17221 1.30883,-0.13777 0.68886,0.0344 1.51549,-0.0689 0.20666,-0.0344 0.37887,-0.13778 0.20666,-0.10333 0.37888,-0.13777 0.34443,-0.0689 0.65441,0 0.34443,0.0344 0.68886,0 0.48221,-0.0689 0.92997,-0.17221 0.4822,-0.13778 0.92996,-0.20666 z"
         style="font-size:34.443px;line-height:1.25;fill:#a4cbd0;fill-opacity:1"
         id="path855" />
    </g>
    <rect
       y="582.96594"
       x="334.8609"
       height="59.784428"
       width="75.353287"
       id="rect821"
       style="opacity:1;fill:#ff8e26;fill-opacity:1;stroke:none;stroke-width:1.42592335;stroke-linecap:round;stroke-linejoin:miter;stroke-miterlimit:4;stroke-dasharray:none;stroke-dashoffset:13.02992058;stroke-opacity:1" />
    <path
       style="fill:#dbfafe;fill-opacity:1;stroke:none;stroke-width:0.48004076"
       d="m 326.11767,589.18574 c -0.19324,-0.0689 -0.84336,-0.34357 -1.44473,-0.61037 -0.95307,-0.42284 -2.72875,-1.73245 -2.71628,-2.19209 0.10645,-0.27277 0.78247,-2.71856 1.06465,-3.62032 0.28217,-0.90177 1.06902,-2.69359 1.74855,-3.98182 0.67953,-1.28824 1.51824,-3.13276 1.86379,-4.09894 1.0518,-2.94082 2.49131,-5.91566 3.4002,-7.02674 0.47422,-0.57971 1.19959,-1.78059 1.61194,-2.66863 1.01466,-2.18518 2.44638,-4.13084 4.58106,-6.2255 2.33175,-2.28802 2.64194,-2.43998 4.5891,-2.24811 2.58665,0.25488 18.01732,0.191 20.03771,-0.083 1.02693,-0.13924 4.50217,-0.29453 7.72276,-0.34509 3.22059,-0.0505 6.64613,-0.22184 7.6123,-0.38064 1.20914,-0.19874 2.8883,-0.23793 5.38718,-0.12575 1.99676,0.0896 6.60337,0.15175 10.23691,0.13799 5.21059,-0.0197 6.89618,0.0501 7.97789,0.33038 1.06146,0.27505 1.68591,0.30389 2.76257,0.12758 0.7651,-0.12529 1.48039,-0.22841 1.58954,-0.22916 0.38075,-0.002 3.48239,3.16723 3.90329,3.9891 0.23333,0.45563 1.22613,1.71546 2.2062,2.79963 0.98007,1.08417 2.03068,2.5032 2.33463,3.1534 0.30399,0.65021 1.03139,1.7344 1.61649,2.4093 1.91912,2.21374 3.61183,5.40911 5.08488,9.59895 0.39764,1.13097 0.98139,2.4493 1.29727,2.92963 0.31588,0.48033 0.91461,1.89439 0.91461,1.94945 0,0.25169 -1.99601,1.59565 -3.36915,1.70973 -1.87848,0.15604 -3.27978,1.32123 -7.01594,-1.54344 -5.01998,-3.84902 -5.96165,-3.96532 -12.20083,-1.5069 -5.24982,2.06859 -7.66245,2.45389 -10.10455,1.61367 -1.62155,-0.55789 -2.65999,-1.08803 -7.79765,-3.98085 -5.48796,-3.09006 -6.90969,-3.65022 -8.85327,-3.48818 -0.81089,0.0676 -2.3324,0.40878 -3.38114,0.75816 -1.59665,0.53193 -2.43476,1.03211 -5.15294,3.07526 -6.66741,5.01164 -7.9793,5.12129 -13.64866,1.14071 -3.19892,-2.24602 -4.87866,-3.15744 -5.81913,-3.15744 -1.32177,0 -3.39565,0.72563 -4.80049,1.67964 -0.79028,0.53667 -3.31045,2.84587 -5.60038,5.13155 -3.03623,3.03061 -3.03999,3.83317 -3.94205,4.27355 -1.23149,0.6012 -3.02724,0.94384 -3.69633,0.70527 z"
       id="path3789" />
    <path
       style="fill:#dbfafe;fill-opacity:1;stroke:none;stroke-width:0.48004076"
       d="m 388.34382,604.92468 c -0.88428,-0.48614 -3.11794,-2.61353 -3.52306,-3.35545 -0.23989,-0.43932 -0.13958,-0.89108 0.38707,-1.74322 0.92639,-1.49893 1.55723,-1.80434 3.72701,-1.80434 1.50197,0 2.03111,0.17465 3.2514,1.07311 0.80162,0.59022 1.75428,1.22746 2.11704,1.41611 0.36275,0.18865 0.7121,0.61587 0.77633,0.94938 0.17129,0.88939 -1.79353,2.74533 -3.53431,3.33848 -1.75519,0.59805 -2.30348,0.61961 -3.20148,0.12593 z"
       id="path3783" />
    <path
       style="fill:#a9eaf2;fill-opacity:1;stroke:none;stroke-width:0.48004076"
       d="m 360.51166,655.49271 c -8.23989,-0.32357 -15.62448,-2.38302 -20.56484,-5.73521 -0.74711,-0.50695 -1.94353,-1.12304 -2.6587,-1.36909 -1.90846,-0.65661 -2.69666,-1.22125 -4.46469,-3.19837 -0.87443,-0.97784 -2.14432,-2.18796 -2.82197,-2.68912 -2.84116,-2.10127 -8.48824,-10.44755 -8.48824,-12.54549 0,-0.40188 -0.14982,-1.44904 -0.33293,-2.32703 -0.49866,-2.39089 -1.35349,-9.73778 -1.41211,-12.13644 -0.0283,-1.15941 -0.13461,-3.42554 -0.23617,-5.03584 -0.12526,-1.98622 -0.0929,-3.60575 0.10069,-5.03583 0.15693,-1.15941 0.36888,-3.58364 0.471,-5.38717 0.26929,-4.75601 1.5946,-13.93638 2.0119,-13.93638 0.0637,0 0.63587,0.26351 1.27142,0.58557 1.32461,0.67122 2.24447,0.72846 3.88374,0.24165 1.54123,-0.4577 1.92091,-0.75926 6.92392,-5.4995 4.8876,-4.63089 5.59807,-5.19419 7.40283,-5.86944 2.64713,-0.99042 3.4054,-0.75389 8.46729,2.64117 3.16162,2.12054 4.23959,2.5893 5.99659,2.60766 1.81222,0.019 3.25518,-0.69408 7.43601,-3.67436 1.70726,-1.217 3.53203,-2.4296 4.05505,-2.69464 1.38265,-0.70067 3.59927,-1.22129 5.17271,-1.21491 1.76787,0.007 2.88704,0.47516 8.54973,3.57518 6.27612,3.43584 7.42868,3.94701 9.22441,4.09116 2.06375,0.16566 3.76249,-0.21557 8.29202,-1.86087 6.31263,-2.293 7.23052,-2.19561 11.9563,1.2685 3.53104,2.58833 4.71222,3.22755 5.95433,3.22229 0.93977,-0.004 3.60176,-0.4988 4.41537,-0.82075 0.3242,-0.12828 0.4099,-0.04 0.4099,0.42214 0,0.32139 0.38375,1.14219 0.85275,1.82402 1.61072,2.34156 2.87078,5.91484 4.661,13.21771 1.07555,4.38747 1.09331,4.52315 1.2588,9.61431 0.0923,2.84022 0.23139,5.26679 0.30902,5.39239 0.20293,0.32838 -0.237,8.34354 -0.65464,11.92643 -0.61143,5.24537 -1.90392,10.35087 -3.32128,13.11932 -1.43634,2.80561 -4.89534,6.80703 -8.49281,9.82463 -2.74832,2.30534 -4.43938,3.29339 -6.61103,3.86276 -1.06601,0.27949 -2.25439,0.6604 -2.64085,0.84647 -0.95443,0.45952 -4.9455,1.42488 -8.78119,2.12398 -3.14751,0.57368 -3.2518,0.577 -19.67714,0.62751 -9.08206,0.0279 -17.14525,0.0259 -17.91819,-0.004 v 0 z m -11.64029,-18.45207 c 0.039,-0.38647 0.26334,-1.12428 0.49849,-1.63957 0.39578,-0.86727 1.04712,-3.49992 1.66248,-6.71952 0.14006,-0.73279 0.50388,-1.6814 0.80848,-2.10802 0.30461,-0.42662 0.9759,-1.61889 1.49175,-2.64948 1.62551,-3.24753 4.3515,-5.77823 8.07949,-7.50066 1.48967,-0.68827 2.02055,-0.81432 3.42972,-0.81432 2.15247,0 4.65812,0.57532 5.63067,1.29284 0.4218,0.31119 1.76713,0.89903 2.98961,1.3063 1.47174,0.49031 2.50837,0.99723 3.06824,1.50038 0.46505,0.41793 1.63606,1.1561 2.60223,1.64036 0.96618,0.48427 2.7053,1.53947 3.86471,2.34488 1.15941,0.80541 2.97371,1.89049 4.03178,2.41128 1.05807,0.52079 2.64511,1.52972 3.52676,2.24206 0.88166,0.71235 2.22939,1.67679 2.99497,2.14321 1.37323,0.83663 1.42031,0.84679 3.49998,0.75568 1.68601,-0.0739 2.34248,-0.21311 3.27915,-0.6955 1.43225,-0.73762 1.81899,-1.15057 2.44468,-2.61037 0.268,-0.62524 0.68679,-1.39047 0.93066,-1.7005 0.44745,-0.56884 0.84119,-2.10681 1.58222,-6.18035 0.29869,-1.6419 0.40598,-3.51439 0.40939,-7.14385 0.004,-4.23763 -0.0683,-5.2529 -0.52159,-7.33205 -0.75565,-3.46579 -2.97015,-11.07515 -3.55905,-12.22951 -0.94691,-1.85607 -2.59737,-4.25192 -3.60115,-5.22748 -4.15482,-4.03802 -10.83659,-3.90817 -17.17114,0.33371 -3.05844,2.04804 -3.49586,2.47679 -5.58092,5.47018 -1.10651,1.58852 -2.77019,3.77449 -3.69707,4.85771 -0.9269,1.08322 -2.30192,2.99046 -3.05561,4.23831 -2.89149,4.7873 -4.70057,5.72448 -9.16977,4.75035 -0.90176,-0.19655 -1.86382,-0.3592 -2.1379,-0.36144 -0.27408,-0.002 -0.64298,-0.1793 -0.81979,-0.39347 -0.1768,-0.21417 -0.79576,-0.5947 -1.37547,-0.84563 -0.5797,-0.25093 -1.43247,-0.83986 -1.89503,-1.30873 -0.46255,-0.46887 -1.10853,-1.03223 -1.4355,-1.2519 -0.88115,-0.592 -1.75317,-2.23959 -2.87077,-5.42399 -2.11509,-6.02657 -3.33291,-8.81566 -3.84923,-8.81566 -0.10259,0 -0.25537,0.97496 -0.33952,2.16658 -0.0841,1.19162 -0.31079,3.4314 -0.50367,4.97728 -0.19288,1.54589 -0.40651,5.28763 -0.47473,8.31498 -0.0682,3.02736 -0.23849,6.03974 -0.37839,6.6942 -0.18787,0.87888 -0.1813,1.6231 0.0252,2.84717 0.24025,1.42434 0.2277,1.75747 -0.0892,2.37038 -0.50776,0.98188 -0.46511,2.53732 0.21743,7.93174 0.90844,7.17971 1.16372,8.40702 2.1329,10.2544 1.11693,2.12902 1.89419,2.96942 2.66326,2.87962 0.46493,-0.0543 0.60544,-0.21822 0.66132,-0.7716 z"
       id="path3827" />
  </g>
</svg>
