<?xml version="1.0" encoding="UTF-8" standalone="no"?>
<!-- Created with Inkscape (http://www.inkscape.org/) -->

<svg
   xmlns:dc="http://purl.org/dc/elements/1.1/"
   xmlns:cc="http://creativecommons.org/ns#"
   xmlns:rdf="http://www.w3.org/1999/02/22-rdf-syntax-ns#"
   xmlns:svg="http://www.w3.org/2000/svg"
   xmlns="http://www.w3.org/2000/svg"
   xmlns:sodipodi="http://sodipodi.sourceforge.net/DTD/sodipodi-0.dtd"
   xmlns:inkscape="http://www.inkscape.org/namespaces/inkscape"
   width="391.47556"
   height="100.00001"
   id="svg2"
   version="1.1"
   inkscape:version="0.92.2 5c3e80d, 2017-08-06"
   sodipodi:docname="bigLogo.svg"
   inkscape:export-filename="/opt/lampp/htdocs/img/logo.png"
   inkscape:export-xdpi="90"
   inkscape:export-ydpi="90">
  <defs
     id="defs4" />
  <sodipodi:namedview
     id="base"
     pagecolor="#ffffff"
     bordercolor="#666666"
     borderopacity="1.0"
     inkscape:pageopacity="0.0"
     inkscape:pageshadow="2"
     inkscape:zoom="2.9277527"
     inkscape:cx="229.69948"
     inkscape:cy="38.377764"
     inkscape:document-units="px"
     inkscape:current-layer="layer1"
     showgrid="false"
     inkscape:window-width="1920"
     inkscape:window-height="1020"
     inkscape:window-x="0"
     inkscape:window-y="30"
     inkscape:window-maximized="1"
     fit-margin-top="0"
     fit-margin-left="0"
     fit-margin-right="0"
     fit-margin-bottom="0" />
  <metadata
     id="metadata7">
    <rdf:RDF>
      <cc:Work
         rdf:about="">
        <dc:format>image/svg+xml</dc:format>
        <dc:type
           rdf:resource="http://purl.org/dc/dcmitype/StillImage" />
        <dc:title />
      </cc:Work>
    </rdf:RDF>
  </metadata>
  <g
     inkscape:label="Layer 1"
     inkscape:groupmode="layer"
     id="layer1"
     transform="translate(-37.184271,-555.51684)">
    <text
       xml:space="preserve"
       style="font-style:normal;font-variant:normal;font-weight:normal;font-stretch:normal;line-height:0%;font-family:'Conventional Wisdom';-inkscape-font-specification:'Conventional Wisdom';letter-spacing:0px;word-spacing:0px;fill:#ff8e26;fill-opacity:1;stroke:none;"
       x="161.38504"
       y="632.50922"
       id="text2985"
       inkscape:export-filename="C:\Users\Tim\Dropbox\Public\crudefish\logo.png"
       inkscape:export-xdpi="90"
       inkscape:export-ydpi="90"><tspan
         sodipodi:role="line"
         id="tspan2987"
         x="161.38504"
         y="632.50922"
         style="font-size:64.10953522px;line-height:1.25;fill:#ff8e26;fill-opacity:1;">FISH</tspan></text>
    <text
       xml:space="preserve"
       style="font-style:normal;font-variant:normal;font-weight:normal;font-stretch:normal;line-height:0%;font-family:Remnant;-inkscape-font-specification:Remnant;letter-spacing:0px;word-spacing:0px;fill:#a4cbd0;fill-opacity:1;stroke:none;"
       x="36.851322"
       y="631.89679"
       id="text2989"
       inkscape:export-filename="C:\Users\Tim\Dropbox\Public\crudefish\logo.png"
       inkscape:export-xdpi="90"
       inkscape:export-ydpi="90"><tspan
         sodipodi:role="line"
         id="tspan2991"
         x="36.851322"
         y="631.89679"
         style="font-size:34.44295502px;line-height:1.25;fill:#a4cbd0;fill-opacity:1;">crude</tspan></text>
    <rect
       y="582.96594"
       x="334.8609"
       height="59.784428"
       width="75.353287"
       id="rect821"
       style="opacity:1;fill:#ff8e26;fill-opacity:1;stroke:none;stroke-width:1.42592335;stroke-linecap:round;stroke-linejoin:miter;stroke-miterlimit:4;stroke-dasharray:none;stroke-dashoffset:13.02992058;stroke-opacity:1" />
    <path
       sodipodi:nodetypes="cccccsccccsscsscccccccccscscssccssscsccc"
       inkscape:export-ydpi="90"
       inkscape:export-xdpi="90"
       inkscape:export-filename="C:\Users\Tim\Dropbox\Public\crudefish\logo.png"
       style="fill:#dbfafe;fill-opacity:1;stroke:none;stroke-width:0.48004076"
       d="m 326.11767,589.18574 c -0.19324,-0.0689 -0.84336,-0.34357 -1.44473,-0.61037 -0.95307,-0.42284 -2.72875,-1.73245 -2.71628,-2.19209 0.10645,-0.27277 0.78247,-2.71856 1.06465,-3.62032 0.28217,-0.90177 1.06902,-2.69359 1.74855,-3.98182 0.67953,-1.28824 1.51824,-3.13276 1.86379,-4.09894 1.0518,-2.94082 2.49131,-5.91566 3.4002,-7.02674 0.47422,-0.57971 1.19959,-1.78059 1.61194,-2.66863 1.01466,-2.18518 2.44638,-4.13084 4.58106,-6.2255 2.33175,-2.28802 2.64194,-2.43998 4.5891,-2.24811 2.58665,0.25488 18.01732,0.191 20.03771,-0.083 1.02693,-0.13924 4.50217,-0.29453 7.72276,-0.34509 3.22059,-0.0505 6.64613,-0.22184 7.6123,-0.38064 1.20914,-0.19874 2.8883,-0.23793 5.38718,-0.12575 1.99676,0.0896 6.60337,0.15175 10.23691,0.13799 5.21059,-0.0197 6.89618,0.0501 7.97789,0.33038 1.06146,0.27505 1.68591,0.30389 2.76257,0.12758 0.7651,-0.12529 1.48039,-0.22841 1.58954,-0.22916 0.38075,-0.002 3.48239,3.16723 3.90329,3.9891 0.23333,0.45563 1.22613,1.71546 2.2062,2.79963 0.98007,1.08417 2.03068,2.5032 2.33463,3.1534 0.30399,0.65021 1.03139,1.7344 1.61649,2.4093 1.91912,2.21374 3.61183,5.40911 5.08488,9.59895 0.39764,1.13097 0.98139,2.4493 1.29727,2.92963 0.31588,0.48033 0.91461,1.89439 0.91461,1.94945 0,0.25169 -1.99601,1.59565 -3.36915,1.70973 -1.87848,0.15604 -3.27978,1.32123 -7.01594,-1.54344 -5.01998,-3.84902 -5.96165,-3.96532 -12.20083,-1.5069 -5.24982,2.06859 -7.66245,2.45389 -10.10455,1.61367 -1.62155,-0.55789 -2.65999,-1.08803 -7.79765,-3.98085 -5.48796,-3.09006 -6.90969,-3.65022 -8.85327,-3.48818 -0.81089,0.0676 -2.3324,0.40878 -3.38114,0.75816 -1.59665,0.53193 -2.43476,1.03211 -5.15294,3.07526 -6.66741,5.01164 -7.9793,5.12129 -13.64866,1.14071 -3.19892,-2.24602 -4.87866,-3.15744 -5.81913,-3.15744 -1.32177,0 -3.39565,0.72563 -4.80049,1.67964 -0.79028,0.53667 -3.31045,2.84587 -5.60038,5.13155 -3.03623,3.03061 -3.03999,3.83317 -3.94205,4.27355 -1.23149,0.6012 -3.02724,0.94384 -3.69633,0.70527 z"
       id="path3789"
       inkscape:connector-curvature="0" />
    <path
       inkscape:export-ydpi="90"
       inkscape:export-xdpi="90"
       inkscape:export-filename="C:\Users\Tim\Dropbox\Public\crudefish\logo.png"
       style="fill:#dbfafe;fill-opacity:1;stroke:none;stroke-width:0.48004076"
       d="m 388.34382,604.92468 c -0.88428,-0.48614 -3.11794,-2.61353 -3.52306,-3.35545 -0.23989,-0.43932 -0.13958,-0.89108 0.38707,-1.74322 0.92639,-1.49893 1.55723,-1.80434 3.72701,-1.80434 1.50197,0 2.03111,0.17465 3.2514,1.07311 0.80162,0.59022 1.75428,1.22746 2.11704,1.41611 0.36275,0.18865 0.7121,0.61587 0.77633,0.94938 0.17129,0.88939 -1.79353,2.74533 -3.53431,3.33848 -1.75519,0.59805 -2.30348,0.61961 -3.20148,0.12593 z"
       id="path3783"
       inkscape:connector-curvature="0" />
    <path
       inkscape:export-ydpi="90"
       inkscape:export-xdpi="90"
       inkscape:export-filename="C:\Users\Tim\Dropbox\Public\crudefish\logo.png"
       style="fill:#a9eaf2;fill-opacity:1;stroke:none;stroke-width:0.48004076"
       d="m 360.51166,655.49271 c -8.23989,-0.32357 -15.62448,-2.38302 -20.56484,-5.73521 -0.74711,-0.50695 -1.94353,-1.12304 -2.6587,-1.36909 -1.90846,-0.65661 -2.69666,-1.22125 -4.46469,-3.19837 -0.87443,-0.97784 -2.14432,-2.18796 -2.82197,-2.68912 -2.84116,-2.10127 -8.48824,-10.44755 -8.48824,-12.54549 0,-0.40188 -0.14982,-1.44904 -0.33293,-2.32703 -0.49866,-2.39089 -1.35349,-9.73778 -1.41211,-12.13644 -0.0283,-1.15941 -0.13461,-3.42554 -0.23617,-5.03584 -0.12526,-1.98622 -0.0929,-3.60575 0.10069,-5.03583 0.15693,-1.15941 0.36888,-3.58364 0.471,-5.38717 0.26929,-4.75601 1.5946,-13.93638 2.0119,-13.93638 0.0637,0 0.63587,0.26351 1.27142,0.58557 1.32461,0.67122 2.24447,0.72846 3.88374,0.24165 1.54123,-0.4577 1.92091,-0.75926 6.92392,-5.4995 4.8876,-4.63089 5.59807,-5.19419 7.40283,-5.86944 2.64713,-0.99042 3.4054,-0.75389 8.46729,2.64117 3.16162,2.12054 4.23959,2.5893 5.99659,2.60766 1.81222,0.019 3.25518,-0.69408 7.43601,-3.67436 1.70726,-1.217 3.53203,-2.4296 4.05505,-2.69464 1.38265,-0.70067 3.59927,-1.22129 5.17271,-1.21491 1.76787,0.007 2.88704,0.47516 8.54973,3.57518 6.27612,3.43584 7.42868,3.94701 9.22441,4.09116 2.06375,0.16566 3.76249,-0.21557 8.29202,-1.86087 6.31263,-2.293 7.23052,-2.19561 11.9563,1.2685 3.53104,2.58833 4.71222,3.22755 5.95433,3.22229 0.93977,-0.004 3.60176,-0.4988 4.41537,-0.82075 0.3242,-0.12828 0.4099,-0.04 0.4099,0.42214 0,0.32139 0.38375,1.14219 0.85275,1.82402 1.61072,2.34156 2.87078,5.91484 4.661,13.21771 1.07555,4.38747 1.09331,4.52315 1.2588,9.61431 0.0923,2.84022 0.23139,5.26679 0.30902,5.39239 0.20293,0.32838 -0.237,8.34354 -0.65464,11.92643 -0.61143,5.24537 -1.90392,10.35087 -3.32128,13.11932 -1.43634,2.80561 -4.89534,6.80703 -8.49281,9.82463 -2.74832,2.30534 -4.43938,3.29339 -6.61103,3.86276 -1.06601,0.27949 -2.25439,0.6604 -2.64085,0.84647 -0.95443,0.45952 -4.9455,1.42488 -8.78119,2.12398 -3.14751,0.57368 -3.2518,0.577 -19.67714,0.62751 -9.08206,0.0279 -17.14525,0.0259 -17.91819,-0.004 v 0 z m -11.64029,-18.45207 c 0.039,-0.38647 0.26334,-1.12428 0.49849,-1.63957 0.39578,-0.86727 1.04712,-3.49992 1.66248,-6.71952 0.14006,-0.73279 0.50388,-1.6814 0.80848,-2.10802 0.30461,-0.42662 0.9759,-1.61889 1.49175,-2.64948 1.62551,-3.24753 4.3515,-5.77823 8.07949,-7.50066 1.48967,-0.68827 2.02055,-0.81432 3.42972,-0.81432 2.15247,0 4.65812,0.57532 5.63067,1.29284 0.4218,0.31119 1.76713,0.89903 2.98961,1.3063 1.47174,0.49031 2.50837,0.99723 3.06824,1.50038 0.46505,0.41793 1.63606,1.1561 2.60223,1.64036 0.96618,0.48427 2.7053,1.53947 3.86471,2.34488 1.15941,0.80541 2.97371,1.89049 4.03178,2.41128 1.05807,0.52079 2.64511,1.52972 3.52676,2.24206 0.88166,0.71235 2.22939,1.67679 2.99497,2.14321 1.37323,0.83663 1.42031,0.84679 3.49998,0.75568 1.68601,-0.0739 2.34248,-0.21311 3.27915,-0.6955 1.43225,-0.73762 1.81899,-1.15057 2.44468,-2.61037 0.268,-0.62524 0.68679,-1.39047 0.93066,-1.7005 0.44745,-0.56884 0.84119,-2.10681 1.58222,-6.18035 0.29869,-1.6419 0.40598,-3.51439 0.40939,-7.14385 0.004,-4.23763 -0.0683,-5.2529 -0.52159,-7.33205 -0.75565,-3.46579 -2.97015,-11.07515 -3.55905,-12.22951 -0.94691,-1.85607 -2.59737,-4.25192 -3.60115,-5.22748 -4.15482,-4.03802 -10.83659,-3.90817 -17.17114,0.33371 -3.05844,2.04804 -3.49586,2.47679 -5.58092,5.47018 -1.10651,1.58852 -2.77019,3.77449 -3.69707,4.85771 -0.9269,1.08322 -2.30192,2.99046 -3.05561,4.23831 -2.89149,4.7873 -4.70057,5.72448 -9.16977,4.75035 -0.90176,-0.19655 -1.86382,-0.3592 -2.1379,-0.36144 -0.27408,-0.002 -0.64298,-0.1793 -0.81979,-0.39347 -0.1768,-0.21417 -0.79576,-0.5947 -1.37547,-0.84563 -0.5797,-0.25093 -1.43247,-0.83986 -1.89503,-1.30873 -0.46255,-0.46887 -1.10853,-1.03223 -1.4355,-1.2519 -0.88115,-0.592 -1.75317,-2.23959 -2.87077,-5.42399 -2.11509,-6.02657 -3.33291,-8.81566 -3.84923,-8.81566 -0.10259,0 -0.25537,0.97496 -0.33952,2.16658 -0.0841,1.19162 -0.31079,3.4314 -0.50367,4.97728 -0.19288,1.54589 -0.40651,5.28763 -0.47473,8.31498 -0.0682,3.02736 -0.23849,6.03974 -0.37839,6.6942 -0.18787,0.87888 -0.1813,1.6231 0.0252,2.84717 0.24025,1.42434 0.2277,1.75747 -0.0892,2.37038 -0.50776,0.98188 -0.46511,2.53732 0.21743,7.93174 0.90844,7.17971 1.16372,8.40702 2.1329,10.2544 1.11693,2.12902 1.89419,2.96942 2.66326,2.87962 0.46493,-0.0543 0.60544,-0.21822 0.66132,-0.7716 z"
       id="path3827"
       inkscape:connector-curvature="0" />
  </g>
</svg>
