<?xml version="1.0" encoding="UTF-8" standalone="no"?>
<!-- Created with Inkscape (http://www.inkscape.org/) -->

<svg
   xmlns:dc="http://purl.org/dc/elements/1.1/"
   xmlns:cc="http://creativecommons.org/ns#"
   xmlns:rdf="http://www.w3.org/1999/02/22-rdf-syntax-ns#"
   xmlns:svg="http://www.w3.org/2000/svg"
   xmlns="http://www.w3.org/2000/svg"
   xmlns:sodipodi="http://sodipodi.sourceforge.net/DTD/sodipodi-0.dtd"
   xmlns:inkscape="http://www.inkscape.org/namespaces/inkscape"
   width="32"
   height="32"
   viewBox="0 0 8.4666665 8.4666669"
   version="1.1"
   id="svg846"
   inkscape:version="0.92.2 5c3e80d, 2017-08-06"
   sodipodi:docname="favicon.svg"
   inkscape:export-filename="/opt/lampp/htdocs/img/favicon.png"
   inkscape:export-xdpi="96.000008"
   inkscape:export-ydpi="96.000008">
  <defs
     id="defs840" />
  <sodipodi:namedview
     id="base"
     pagecolor="#ffffff"
     bordercolor="#666666"
     borderopacity="1.0"
     inkscape:pageopacity="0.0"
     inkscape:pageshadow="2"
     inkscape:zoom="16.651594"
     inkscape:cx="24.242078"
     inkscape:cy="10.142917"
     inkscape:document-units="mm"
     inkscape:current-layer="layer1"
     showgrid="false"
     units="px"
     inkscape:window-width="1920"
     inkscape:window-height="1020"
     inkscape:window-x="0"
     inkscape:window-y="30"
     inkscape:window-maximized="1" />
  <metadata
     id="metadata843">
    <rdf:RDF>
      <cc:Work
         rdf:about="">
        <dc:format>image/svg+xml</dc:format>
        <dc:type
           rdf:resource="http://purl.org/dc/dcmitype/StillImage" />
        <dc:title />
      </cc:Work>
    </rdf:RDF>
  </metadata>
  <g
     inkscape:label="Layer 1"
     inkscape:groupmode="layer"
     id="layer1"
     transform="translate(0,-288.53332)">
    <path
       style="opacity:1;fill:#ff8e26;fill-opacity:1;stroke:none;stroke-width:0.17925143;stroke-linecap:round;stroke-linejoin:miter;stroke-miterlimit:4;stroke-dasharray:none;stroke-dashoffset:13.02992058;stroke-opacity:1"
       d="m 6.2409386,289.4591 c -0.1874071,0.003 -0.3832523,0.0397 -0.582141,0.10828 -0.1988876,0.0686 -0.4007397,0.16967 -0.5998181,0.30297 -0.1922367,0.12873 -0.3021991,0.20661 -0.3967686,0.2993 -0.094565,0.0927 -0.1738867,0.20027 -0.3049428,0.38842 -0.1390987,0.1997 -0.3480165,0.47445 -0.4645339,0.61062 -0.1165195,0.13618 -0.2895008,0.37593 -0.3842473,0.53279 -0.090875,0.15045 -0.1731498,0.2706 -0.2543641,0.36437 -0.081214,0.0937 -0.1612311,0.16106 -0.2474893,0.20574 -0.086258,0.0447 -0.1788047,0.0668 -0.2848109,0.07 -0.1060073,0.003 -0.2256235,-0.0124 -0.3660775,-0.043 -0.1133599,-0.0247 -0.2341512,-0.0451 -0.2686055,-0.0454 -0.034454,-2.4e-4 -0.080894,-0.0226 -0.1031174,-0.0496 -0.022223,-0.027 -0.099972,-0.0745 -0.1728502,-0.10611 -0.072875,-0.0316 -0.180256,-0.10578 -0.2384038,-0.16475 -0.058149,-0.059 -0.1393589,-0.12977 -0.1804619,-0.15737 -0.055387,-0.0372 -0.1103538,-0.10741 -0.169167,-0.21852 -0.05881,-0.11113 -0.1212637,-0.26316 -0.1915094,-0.46331 -0.13294254,-0.3788 -0.23784292,-0.65587 -0.31746511,-0.83822 -0.0796254,-0.18236 -0.13401319,-0.26984 -0.16646586,-0.26984 -0.0128923,0 -0.0321509,0.1225 -0.0427186,0.27229 -0.010557,0.14979 -0.0391036,0.43127 -0.063342,0.62559 -0.0242491,0.19434 -0.0510895,0.66489 -0.0596631,1.04546 -0.008531,0.38056 -0.0300395,0.75914 -0.0476345,0.84141 -0.02362,0.11049 -0.0227775,0.2041 0.003199,0.35798 0.0301994,0.17904 0.0287918,0.22101 -0.0110475,0.29807 -0.0319163,0.0617 -0.0465681,0.14138 -0.0424733,0.29046 0.004052,0.14907 0.0268297,0.36755 0.0697296,0.70661 0.0571038,0.45128 0.0935841,0.71551 0.13111055,0.89593 0.0375253,0.18042 0.0760851,0.27696 0.13700327,0.39308 0.0701988,0.13382 0.12959098,0.22709 0.18365242,0.28555 0.0540647,0.0584 0.10265889,0.082 0.15099824,0.0764 0.0584474,-0.006 0.076213,-0.0274 0.0832297,-0.0969 0.00491,-0.0486 0.033047,-0.14122 0.062606,-0.206 0.049756,-0.10902 0.1315861,-0.44012 0.2089423,-0.84486 0.017606,-0.0921 0.063353,-0.21129 0.1016458,-0.26491 0.038293,-0.0536 0.1227354,-0.20363 0.187582,-0.33318 0.1021684,-0.20412 0.2390064,-0.38572 0.4087993,-0.54335 0.169794,-0.15763 0.3726186,-0.29121 0.6069393,-0.39946 0.1872653,-0.0865 0.2539984,-0.10238 0.4311439,-0.10238 0.1352918,0 0.2816844,0.018 0.4095361,0.0473 0.1278507,0.0293 0.2371839,0.0701 0.2983133,0.11515 0.05302,0.0391 0.2219765,0.11306 0.3756534,0.16426 0.185011,0.0616 0.3153399,0.12532 0.385721,0.18856 0.058458,0.0526 0.2058286,0.14537 0.3272843,0.20624 0.1214578,0.0609 0.3399015,0.19338 0.4856489,0.29464 0.1457485,0.10119 0.3740027,0.23775 0.5070114,0.30322 0.1330076,0.0655 0.332342,0.19232 0.4431735,0.28186 0.1108315,0.0896 0.2803952,0.21071 0.3766356,0.26934 0.086311,0.0526 0.130861,0.0793 0.1865999,0.0914 0.055739,0.012 0.1226649,0.01 0.2533809,0.003 0.2119474,-0.01 0.2944893,-0.0268 0.4122383,-0.0874 0.090022,-0.0464 0.1470175,-0.0824 0.1915084,-0.12988 0.044489,-0.0474 0.07632,-0.10642 0.115644,-0.19814 0.033686,-0.0786 0.086461,-0.17488 0.1171156,-0.21385 0.056251,-0.0716 0.1057193,-0.26477 0.1988748,-0.77684 0.037547,-0.2064 0.051132,-0.44187 0.051559,-0.89814 5.214e-4,-0.5327 -0.00853,-0.66033 -0.06556,-0.9217 -0.094992,-0.43567 -0.3735634,-1.39236 -0.4475936,-1.53747 -0.119035,-0.23332 -0.326317,-0.5344 -0.4525031,-0.65703 -0.1305742,-0.12691 -0.2812376,-0.22108 -0.4458736,-0.2826 -0.164637,-0.0615 -0.3434183,-0.0903 -0.5308265,-0.0867 z"
       id="path1433"
       inkscape:connector-curvature="0" />
    <path
       inkscape:export-ydpi="90"
       inkscape:export-xdpi="90"
       inkscape:export-filename="C:\Users\Tim\Dropbox\Public\crudefish\logo.png"
       style="fill:#dbfafe;fill-opacity:1;stroke:none;stroke-width:0.06034546"
       d="m 6.001767,291.94006 c -0.1111621,-0.0611 -0.3919539,-0.32855 -0.4428813,-0.42181 -0.030157,-0.0552 -0.017542,-0.11201 0.048658,-0.21914 0.1164555,-0.18843 0.1957578,-0.22682 0.4685188,-0.22682 0.1888116,0 0.2553292,0.022 0.408731,0.1349 0.1007715,0.0742 0.2205284,0.1543 0.2661304,0.17802 0.045598,0.0237 0.089521,0.0774 0.097594,0.11934 0.02153,0.1118 -0.2254635,0.34511 -0.4442953,0.41968 -0.2206436,0.0752 -0.289568,0.0778 -0.4024544,0.0158 z"
       id="path3783"
       inkscape:connector-curvature="0" />
  </g>
</svg>
